<svg
   width="14.486222mm"
   height="3.4902062mm"
   viewBox="0 0 14.486222 3.4902062"
   version="1.1"
   id="svg5"
   xmlns="http://www.w3.org/2000/svg"
   xmlns:svg="http://www.w3.org/2000/svg">
  <defs
     id="defs2" />
  <g
     id="layer1"
     transform="translate(-1.2753907,-0.88281248)">
    <g
       aria-label="CareerHub"
       id="text236"
       style="font-size:4.23333px;font-family:Rancho;-inkscape-font-specification:'Rancho, Normal';font-variant-position:sub;stroke:#000000;stroke-width:0.257;stroke-opacity:0">
      <g
         id="path358">
        <path
           style="color:#000000;-inkscape-font-specification:'Rancho, Normal';fill:#000000;stroke:none;stroke-opacity:1;-inkscape-stroke:none"
           d="m 2.3796155,4.2274922 q -0.223242,0 -0.4051429,-0.111621 Q 1.7925717,4.0083843 1.6644143,3.8182152 1.5403909,3.628046 1.4701111,3.3717312 1.4039653,3.1154163 1.4039653,2.8177603 q 0,-0.4258135 0.099219,-0.7606765 0.099219,-0.334863 0.260449,-0.5663732 0.1653645,-0.2315102 0.37207,-0.3555336 0.2108397,-0.1240233 0.4299476,-0.1240233 0.2067056,0 0.3472653,0.074414 0.1405598,0.074414 0.223242,0.1901691 0.086816,0.1157551 0.1157551,0.2563149 0.033073,0.1364257 0.020671,0.260449 -0.020671,0.2397785 -0.1653644,0.3886065 -0.1405598,0.148828 -0.3265948,0.148828 -0.062012,-0.00413 -0.1281575,-0.020671 -0.057878,-0.016536 -0.1198892,-0.049609 -0.062012,-0.033073 -0.1157551,-0.095085 0.1736327,0.012402 0.2687172,-0.07028 0.095085,-0.082682 0.1405598,-0.186035 0.049609,-0.1198892 0.057878,-0.2811195 0,-0.090951 -0.028939,-0.1570963 -0.028939,-0.07028 -0.078548,-0.111621 -0.045475,-0.045475 -0.099219,-0.066146 -0.053743,-0.020671 -0.1033528,-0.020671 -0.111621,0 -0.2439125,0.086816 -0.1281575,0.086816 -0.2439126,0.2645832 -0.1157551,0.1736326 -0.1943032,0.446484 -0.074414,0.2687172 -0.074414,0.6407872 0,0.3679359 0.066146,0.6035802 0.066146,0.2315102 0.1612303,0.3638018 0.095085,0.1281574 0.1984373,0.1777668 0.1074869,0.045475 0.1819009,0.045475 0.1446939,-0.012402 0.2645831,-0.099219 0.1033528,-0.074414 0.1943033,-0.2356443 0.095085,-0.1653645 0.1281574,-0.4712887 0.053743,0.00413 0.086816,0.024805 0.037207,0.020671 0.062012,0.041341 0.024805,0.024805 0.045475,0.057878 0.00413,0.00413 0,0.082682 -0.00413,0.078548 -0.028939,0.1901691 -0.024805,0.111621 -0.078548,0.2397784 -0.049609,0.1281575 -0.1446939,0.2397785 -0.09095,0.111621 -0.2315102,0.1819009 -0.1405598,0.074414 -0.3431312,0.074414 z"
           id="path379" />
        <path
           style="color:#000000;-inkscape-font-specification:'Rancho, Normal';fill:#000000;fill-opacity:0;stroke:none;stroke-opacity:1;-inkscape-stroke:none"
           d="m 2.5664063,0.8828125 c -0.1703171,0 -0.3387669,0.0500329 -0.4960938,0.1425781 -0.1550879,0.093053 -0.2934556,0.2245098 -0.4121094,0.390625 v 0.00195 c -0.1170268,0.168042 -0.2081033,0.369833 -0.2773437,0.6035188 -0.070361,0.2374664 -0.1054688,0.503019 -0.1054688,0.796875 0,0.2079556 0.023208,0.4034077 0.070312,0.5859375 v 0.00195 c 0.049808,0.1816508 0.1198921,0.3428189 0.2109375,0.4824219 l 0.00195,0.00195 c 0.094914,0.1408396 0.2111465,0.2541185 0.3496094,0.3359375 v -0.00195 c 0.1412403,0.08667 0.3004587,0.1308593 0.4707032,0.1308593 0.1493921,1e-7 0.2848337,-0.027523 0.4003906,-0.087891 C 2.8865781,4.2139377 2.9802268,4.1430277 3.0527344,4.0546875 3.1237435,3.9713292 3.1783296,3.8792295 3.2167969,3.78125 V 3.7793 c 0.037862,-0.090535 0.067522,-0.1768955 0.085937,-0.2597656 0.017597,-0.079172 0.027956,-0.1482867 0.03125,-0.2109375 0.00144,-0.027364 0.00391,-0.048347 0.00391,-0.066406 0,-0.00903 -9.743e-4,-0.01852 -0.00195,-0.029297 -4.894e-4,-0.00539 -0.00149,-0.01099 -0.00391,-0.021484 -0.00121,-0.00525 -0.00571,-0.021119 -0.00586,-0.021484 -7.53e-5,-1.83e-4 -0.00968,-0.017444 -0.00977,-0.017578 -6.9e-6,-1.15e-5 -0.00169,-0.00161 -0.00195,-0.00195 L 3.296875,3.1269531 C 3.282665,3.1070071 3.26911,3.0874691 3.251953,3.0703121 l -0.00391,-0.00391 -0.00391,-0.00391 C 3.219513,3.0419781 3.192212,3.0245361 3.162109,3.0078121 3.118298,2.9818991 3.06961,2.9704951 3.021484,2.9667961 l -0.1230469,-0.00977 -0.013672,0.1230468 c -0.0209,0.193326 -0.061798,0.3357361 -0.1113281,0.421875 H 2.771487 C 2.716931,3.5986609 2.6629307,3.6629209 2.615237,3.6972604 2.555367,3.7406144 2.4921531,3.7620804 2.4218776,3.7695264 2.3981262,3.76898 2.3536008,3.760879 2.2949219,3.7363281 h -0.00195 C 2.2500753,3.7145128 2.2014154,3.6729672 2.1484375,3.6015625 2.0978096,3.5307277 2.0490078,3.4234801 2.0078125,3.2792969 c -0.039394,-0.1403414 -0.0625,-0.3307694 -0.0625,-0.5683594 0,-0.2387199 0.025054,-0.4413054 0.070312,-0.6054687 v -0.00195 C 2.0652407,1.9317526 2.1262497,1.7940238 2.1933594,1.6933594 2.263916,1.5850043 2.3357499,1.5099555 2.4023438,1.4648437 c 0.07289,-0.047273 0.1313326,-0.064453 0.171875,-0.064453 0.015226,0 0.033177,0.00269 0.056641,0.011719 0.017695,0.00681 0.035385,0.017806 0.054687,0.037109 l 0.00391,0.00391 0.00391,0.00391 c 0.015002,0.012501 0.030142,0.031349 0.042969,0.0625 l 0.00195,0.00195 c 0.010241,0.023407 0.01706,0.05713 0.017578,0.1015625 -0.00507,0.094968 -0.022779,0.1733753 -0.048828,0.2363281 -0.022132,0.049344 -0.05522,0.094978 -0.1054688,0.1386719 -0.031763,0.02762 -0.08193,0.045766 -0.1757812,0.039062 L 2.117192,2.0136762 2.320317,2.2480512 c 0.044444,0.051282 0.095178,0.094512 0.1523438,0.125 0.048141,0.025676 0.095843,0.046636 0.1445312,0.060547 h 0.00195 0.00195 c 0.050824,0.012709 0.1007223,0.022083 0.1503906,0.025391 h 0.00391 0.00586 c 0.1574021,0 0.3050712,-0.068943 0.4179688,-0.1875 l 0.00195,-0.00195 C 3.3180219,2.1484132 3.3843787,1.9861236 3.4003906,1.8046875 v -0.00195 c 0.00944,-0.09672 6.809e-4,-0.1957076 -0.023437,-0.296875 C 3.354124,1.3949765 3.3081205,1.2923171 3.2402344,1.2011719 l -0.00195,-0.00195 C 3.1708728,1.1056377 3.0806531,1.0298311 2.9726563,0.97265625 2.8559296,0.91085975 2.7196298,0.8828125 2.5664063,0.8828125 Z m 0,0.2578125 c 0.00336,0 0.00449,0.00192 0.00781,0.00195 -0.1077286,0 -0.2123991,0.042402 -0.3144532,0.109375 h -0.00195 C 2.1535299,1.3225959 2.062299,1.4240668 1.9785156,1.5527344 1.8919724,1.6829376 1.8223942,1.8427892 1.7675781,2.0332031 v 0.00195 c -0.05368,0.1938452 -0.078125,0.4191681 -0.078125,0.6757812 0,0.2529907 0.021512,0.4628681 0.070312,0.6367188 v 0.00195 c 0.046789,0.163762 0.1038067,0.29677 0.1796875,0.4023437 l 0.00195,0.00195 c 0.071941,0.096968 0.1521389,0.171706 0.2460974,0.2168063 l 0.00195,0.00195 0.00391,0.00195 c 0.081458,0.034463 0.1566368,0.054688 0.2324219,0.054688 h 0.00391 0.00586 C 2.5544202,4.019108 2.6681632,3.9768263 2.765625,3.90625 2.8553595,3.8416412 2.9295975,3.7484227 2.9960938,3.6308594 v -0.00195 c 0.036352,-0.063535 0.045478,-0.1651155 0.068359,-0.2460938 -0.00425,0.027266 -0.00434,0.046893 -0.011719,0.080078 -0.011182,0.050317 -0.034366,0.1091024 -0.056641,0.1679688 -0.00668,0.017641 -0.00792,0.032411 -0.015625,0.050781 v 0.00195 l -0.00195,0.00195 c -0.027629,0.071376 -0.068246,0.1387938 -0.1230468,0.203125 v 0.00195 C 2.8069698,3.9501467 2.7452992,3.9994208 2.6660156,4.0390625 h -0.00195 -0.00195 c -0.071147,0.037666 -0.1638904,0.060547 -0.2832031,0.060547 -0.1274113,0 -0.2365966,-0.031592 -0.3378907,-0.09375 h -0.00195 C 1.9349911,3.9443627 1.8474471,3.8588127 1.7714844,3.7460938 1.6978769,3.6328747 1.6374233,3.4984719 1.59375,3.3398438 v -0.00195 C 1.55296,3.1791524 1.533203,3.006583 1.533203,2.8183626 c 0,-0.2738948 0.031819,-0.5155923 0.09375,-0.7246094 C 1.6900045,1.8809522 1.7711943,1.7050942 1.8691406,1.5644531 1.9709726,1.4218884 2.0806527,1.3184053 2.2011719,1.2460937 2.3249643,1.1732747 2.4445797,1.140625 2.5664063,1.140625 Z m 0.1582031,0.03125 c 0.041693,0.010006 0.09712,0.010515 0.1289062,0.027344 0.078564,0.041593 0.1350612,0.090648 0.1777344,0.1503907 l 0.00195,0.00195 v 0.00195 c 0.04701,0.06268 0.07817,0.1294062 0.09375,0.2050781 v 0.00195 0.00195 c 0.019082,0.078711 0.024257,0.1500095 0.017578,0.2167969 V 1.78125 C 3.1327589,1.9178067 3.0901763,2.0151153 3.015625,2.0917969 h -0.00195 v 0.00195 c -0.073761,0.0781 -0.141616,0.1070096 -0.2304688,0.1074219 -0.0093,-7.184e-4 -0.019657,-0.0046 -0.029297,-0.00586 0.0042,-0.00335 0.011549,-3.623e-4 0.015625,-0.00391 C 2.8452752,2.1255368 2.9048366,2.0484893 2.9433623,1.96093 V 1.95898 l 0.00195,-0.00195 c 0.039889,-0.0964 0.060304,-0.2052315 0.066406,-0.3242187 v -0.00195 -0.00391 c 4e-7,-0.07359 -0.011643,-0.1435789 -0.039062,-0.2070294 C 2.9478382,1.360603 2.9110442,1.3070606 2.8632813,1.265625 2.82302,1.226115 2.7766197,1.1921405 2.7246094,1.171875 Z"
           id="path381" />
      </g>
      <g
         id="path360">
        <path
           style="color:#000000;-inkscape-font-specification:'Rancho, Normal';fill:#000000;stroke:none;stroke-opacity:1;-inkscape-stroke:none"
           d="m 4.6864495,3.6528507 q 0.00827,0.028939 0.024805,0.053743 0.012402,0.020671 0.033073,0.041341 0.024805,0.016536 0.057878,0.020671 -0.028939,0.057878 -0.057878,0.078548 -0.016536,0.012402 -0.028939,0.016536 -0.037207,0.012402 -0.111621,0.012402 -0.074414,0 -0.1446939,-0.045475 -0.024805,-0.020671 -0.045475,-0.062012 -0.02067,-0.033073 -0.037207,-0.09095 Q 4.3639888,3.6156437 4.3557206,3.5205592 4.297843,3.6445825 4.223429,3.7189965 4.1531491,3.7892764 4.0828692,3.8223493 4.0043211,3.8678245 3.9216389,3.8760927 3.8182861,3.8843609 3.7232016,3.8430198 3.6322511,3.7975446 3.5661054,3.7107283 3.5040937,3.6197778 3.4710208,3.4916204 3.4379479,3.3634629 3.4503502,3.2022326 3.4627526,3.032734 3.516496,2.9004425 3.5702395,2.7681509 3.6446535,2.6647982 3.7190675,2.5614454 3.8017497,2.4911655 q 0.082682,-0.074414 0.1570962,-0.1198892 0.078548,-0.049609 0.1322916,-0.07028 0.057878,-0.024805 0.074414,-0.028939 0.045475,-0.012402 0.078548,-0.00827 0.033073,0.00413 0.057878,0.037207 0.00827,0.012402 0.020671,0.028939 0.00827,0.016536 0.02067,0.045475 0.012402,0.024805 0.020671,0.057878 -0.099219,0.045475 -0.186035,0.1033528 -0.086816,0.053743 -0.1612303,0.1322916 -0.07028,0.078548 -0.1240234,0.1901691 -0.053743,0.111621 -0.082682,0.2728513 -0.041341,0.2025715 0.020671,0.3265948 0.066146,0.1240233 0.1777667,0.1033528 0.066146,-0.020671 0.1281575,-0.078548 0.053743,-0.049609 0.111621,-0.148828 0.062012,-0.099219 0.1157551,-0.2728514 0.020671,-0.2480466 0.033073,-0.3886064 0.016536,-0.1446939 0.028939,-0.2191079 0.016536,-0.086816 0.024805,-0.1157551 0.012402,-0.020671 0.049609,-0.037207 0.037207,-0.020671 0.082682,-0.033073 0.045475,-0.012402 0.082682,-0.012402 0.037207,-0.00413 0.049609,0 0.00827,0.00413 0.00827,0.1033527 0,0.095085 -0.00827,0.2439126 -0.00413,0.1446939 -0.012402,0.3183265 -0.00827,0.1694986 -0.016536,0.3224607 -0.00413,0.1529621 -0.00827,0.2687172 0,0.111621 0.00827,0.1405598 z"
           id="path385" />
        <path
           style="color:#000000;-inkscape-font-specification:'Rancho, Normal';fill:#000000;fill-opacity:0;stroke:none;stroke-opacity:1;-inkscape-stroke:none"
           d="m 4.6621094,2.1269531 c -0.037773,3.966e-4 -0.07565,0.00732 -0.1132813,0.017578 -0.037204,0.010146 -0.072297,0.025123 -0.1054687,0.042969 -0.015295,0.00696 -0.028037,0.024842 -0.042969,0.035156 -0.031721,-0.040645 -0.082184,-0.07864 -0.140625,-0.085937 -0.044931,-0.00561 -0.087466,4.17e-4 -0.1289062,0.011719 -0.031107,0.00815 -0.050813,0.01804 -0.085937,0.033203 C 3.996523,2.2002559 3.9473646,2.2258834 3.890625,2.2617188 3.8343055,2.2962603 3.7764936,2.340972 3.71875,2.3925781 3.6544393,2.4472423 3.5957412,2.513836 3.5410156,2.5898438 3.4847868,2.6679393 3.4357052,2.755019 3.3964844,2.8515625 3.3549779,2.9537324 3.3314595,3.068147 3.3222656,3.1914063 c -0.00914,0.1187915 -0.00284,0.2302055 0.023437,0.3320312 0.025066,0.097132 0.062105,0.1847065 0.1132813,0.2597656 l 0.00195,0.00195 0.00391,0.00391 c 0.054749,0.071858 0.1224274,0.1285966 0.2011718,0.1679688 l 0.00195,0.00195 0.00391,0.00195 c 0.081875,0.035598 0.1707712,0.050088 0.2597656,0.042969 h 0.00195 c 0.072889,-0.00729 0.1436839,-0.031205 0.2089843,-0.068359 0.055644,-0.027114 0.1074851,-0.066781 0.15625,-0.1132813 0.00171,0.003 0.0021,0.0068 0.00391,0.00977 7.47e-4,0.00123 0.00119,0.00268 0.00195,0.00391 0.018231,0.034472 0.039942,0.066813 0.072266,0.09375 l 0.00586,0.00391 0.00586,0.00586 c 0.06422,0.041554 0.1390587,0.064453 0.2148437,0.064453 0.056748,0 0.1031585,-0.00118 0.1523438,-0.017578 0.026947,-0.00898 0.045505,-0.0226 0.0625,-0.035156 0.048968,-0.034976 0.075391,-0.076563 0.099609,-0.125 l 0.080078,-0.1621094 -0.1757813,-0.023437 -0.00195,-0.00195 -0.00195,-0.00391 c -0.00371,-0.00557 -0.00585,-0.010715 -0.00781,-0.017578 0.00612,0.021426 -0.00295,-0.034033 -0.00391,-0.099609 v -0.00391 c -6.5e-6,-0.00131 0,-6.357e-4 0,-0.00195 0.00268,-0.075383 0.00515,-0.1634777 0.00781,-0.2617188 v -0.00391 c 0.00546,-0.1011219 0.01212,-0.20653 0.017576,-0.318363 C 4.8375445,2.8120091 4.8409688,2.706339 4.84375,2.609375 V 2.607425 C 4.84926,2.507751 4.85156,2.4259696 4.85156,2.3593781 c 0,-0.034859 -5.32e-5,-0.062194 -0.00195,-0.085937 C 4.84866,2.2615691 4.84712,2.2514801 4.84375,2.2363321 4.84207,2.2287621 4.84044,2.2193781 4.83398,2.2050821 4.83075,2.1979321 4.818678,2.1781581 4.818355,2.1777381 4.8180319,2.1773184 4.773778,2.1408011 4.773433,2.1406291 l -0.00977,-0.00391 -0.00781,-0.00391 C 4.706359,2.1163271 4.690431,2.1230491 4.666009,2.1269491 Z M 4.59375,2.4023438 c -7.904e-4,0.05465 -0.00142,0.1134264 -0.00586,0.1933593 v 0.00195 0.00195 C 4.58516,2.6950851 4.5797,2.7989806 4.574218,2.9140562 4.568718,3.026853 4.56409,3.1345952 4.558593,3.2363218 v 0.00195 0.00195 c -0.00275,0.1016908 -0.00702,0.1909033 -0.00977,0.2675781 v 0.00195 0.00195 c 0,0.077587 -0.00384,0.1145194 0.013672,0.1757812 0.00553,0.019366 0.016303,0.03664 0.025391,0.054687 -0.015904,-0.00192 -0.031571,-0.00632 -0.050781,-0.017578 -0.00205,-0.00259 -0.0024,-0.00284 -0.00781,-0.013672 l -0.00391,-0.00586 -0.00195,-0.00391 C 4.5195137,3.6948937 4.5105544,3.6736404 4.5019531,3.6445313 4.5015926,3.6433111 4.5003587,3.6438334 4.5,3.6425781 4.493652,3.6088103 4.4892533,3.5658663 4.484375,3.5097656 L 4.4550781,3.1757813 c 0.01,-0.02787 0.021764,-0.045526 0.03125,-0.076172 l 0.00391,-0.013672 0.00195,-0.013672 C 4.505821,2.9086678 4.5171822,2.7806215 4.5253906,2.6875 V 2.68359 c 0.010455,-0.09107 0.019978,-0.1603789 0.027344,-0.2050782 v -0.00391 c 0.00632,-0.032899 0.00975,-0.044965 0.013672,-0.0625 0.00758,-0.00402 0.018253,-0.0063 0.027344,-0.00977 z M 4.078125,2.453125 C 4.023241,2.490639 3.9710231,2.530261 3.9238281,2.5800781 l -0.00195,0.00195 v 0.00195 c -0.056169,0.062777 -0.1043155,0.1352249 -0.1445312,0.21875 -0.041915,0.087054 -0.072952,0.1883879 -0.09375,0.3027344 -0.031105,0.1524154 -0.027715,0.2922277 0.03125,0.4101562 l 0.00195,0.00195 v 0.00195 c 0.029808,0.05589 0.070683,0.1059567 0.1269531,0.1386718 0.05627,0.032715 0.1254361,0.04079 0.1875,0.029297 h 0.00781 l 0.00781,-0.00391 c 0.022281,-0.00696 0.039766,-0.024477 0.060547,-0.035156 -0.028039,0.024379 -0.057357,0.047902 -0.080078,0.058594 l -0.00391,0.00195 -0.00586,0.00195 c -0.037754,0.021857 -0.072093,0.033332 -0.1074218,0.037109 -0.047306,0.0035 -0.089198,-0.00479 -0.1328125,-0.023437 h -0.00195 C 3.736198,3.7039583 3.7012714,3.6752991 3.6699219,3.6347656 3.6393486,3.5890353 3.6143089,3.5310818 3.5957031,3.4589844 3.5778836,3.3899336 3.5707264,3.3090726 3.578125,3.2128906 v -0.00195 C 3.585585,3.1089848 3.6048421,3.0228768 3.6347656,2.9492188 3.6672027,2.8693736 3.7050572,2.7999423 3.7480469,2.7402344 3.7925399,2.6784386 3.8388336,2.628886 3.8847656,2.5898438 l 0.00195,-0.00195 0.00195,-0.00195 c 0.050548,-0.045493 0.095651,-0.080372 0.1367187,-0.1054687 h 0.00195 c 0.022307,-0.014089 0.033141,-0.017846 0.050781,-0.027344 z m 0.1953125,0.1777344 c -0.00132,0.011211 -0.00255,0.015444 -0.00391,0.027344 v 0.00195 0.00195 c -0.00792,0.089809 -0.018323,0.2162107 -0.03125,0.3710937 -0.032554,0.1025936 -0.068571,0.1827612 -0.099609,0.2324219 v 0.00195 l -0.00195,0.00195 c -0.03456,0.059245 -0.066542,0.099434 -0.087891,0.1191406 -0.027972,0.026107 -0.05102,0.039306 -0.072266,0.046875 -4.451e-4,-2.897e-4 -0.00291,5.786e-4 -0.00391,0 -0.00281,-0.00164 -0.014212,-0.01186 -0.027344,-0.035156 -0.023718,-0.047436 -0.033782,-0.1245079 -0.00977,-0.2421875 v -0.00195 -0.00195 c 0.01776,-0.098948 0.043017,-0.1794868 0.072266,-0.2402344 0.030555,-0.06346 0.065222,-0.1148744 0.1015625,-0.15625 l 0.00195,-0.00195 c 5.286e-4,-5.963e-4 0.00142,-0.00136 0.00195,-0.00195 0.041342,-0.04299 0.086284,-0.078619 0.1328125,-0.1074219 l 0.00195,-0.00195 H 4.25 c 0.00733,-0.00489 0.015943,-0.00892 0.023437,-0.013672 z"
           id="path387" />
      </g>
      <g
         id="path362">
        <path
           style="color:#000000;-inkscape-font-specification:'Rancho, Normal';fill:#000000;stroke:none;stroke-opacity:1;-inkscape-stroke:none"
           d="m 6.162327,2.5945183 q 0,0.057878 -0.033073,0.1198892 -0.028939,0.057878 -0.074414,0.111621 -0.045475,0.053743 -0.1033528,0.095085 -0.053743,0.037207 -0.1033527,0.045475 0.033073,-0.1281575 0.020671,-0.1984374 -0.012402,-0.07028 -0.041341,-0.1033527 -0.033073,-0.037207 -0.082682,-0.041341 -0.074414,0 -0.1446939,0.086816 -0.066146,0.082682 -0.1157551,0.2067055 -0.049609,0.1198893 -0.078548,0.260449 -0.028939,0.1364257 -0.028939,0.2480467 -0.00413,0.078548 0.00413,0.1529621 0.00413,0.062012 0.012402,0.1281575 0.012402,0.066146 0.033073,0.1033527 -0.024805,0.020671 -0.082682,0.049609 -0.053743,0.028939 -0.1157551,0.037207 -0.057878,0.00827 -0.1074869,-0.020671 -0.045475,-0.028939 -0.049609,-0.1240233 -0.00827,-0.09095 -0.012402,-0.2025715 0,-0.1157551 0,-0.2273761 0.00413,-0.1157551 0.00827,-0.2273761 0.00413,-0.111621 0.012402,-0.2067055 0.00827,-0.1819009 0.00827,-0.2811196 0,-0.099219 -0.00413,-0.1901691 0,-0.016536 0.053743,-0.045475 0.057878,-0.033073 0.1240234,-0.057878 0.07028,-0.024805 0.1281574,-0.028939 0.057878,-0.00413 0.057878,0.024805 0,0.045475 -0.012402,0.1819009 -0.00827,0.1322915 -0.024805,0.2769854 0.028939,-0.078548 0.074414,-0.1694985 0.049609,-0.090951 0.111621,-0.1694986 0.062012,-0.078548 0.1405598,-0.1281574 0.078548,-0.053743 0.1736326,-0.053743 0.074414,0 0.1198892,0.045475 0.049609,0.045475 0.078548,0.1033527 0.028939,0.057878 0.041341,0.1157551 0.012402,0.057878 0.012402,0.082682 z"
           id="path391" />
        <path
           style="color:#000000;-inkscape-font-specification:'Rancho, Normal';fill:#000000;fill-opacity:0;stroke:none;stroke-opacity:1;-inkscape-stroke:none"
           d="m 5.9101562,2.1191406 c -0.0876,0 -0.1737853,0.026698 -0.2460937,0.076172 C 5.626206,2.2196749 5.5951132,2.2551719 5.5625,2.2871094 5.5508455,2.2399027 5.5187999,2.1855126 5.4824219,2.1699219 5.4395194,2.151535 5.4107776,2.1541151 5.3808594,2.15625 5.3277435,2.1600439 5.2739302,2.1719306 5.21875,2.1914063 l -0.00195,0.00195 c -0.05014,0.018803 -0.0977,0.040761 -0.1425782,0.066406 -0.021389,0.011588 -0.040612,0.022194 -0.060547,0.039063 -0.020683,0.017501 -0.058594,0.04207 -0.058594,0.1171875 v 0.00391 0.00195 c 0.00266,0.058518 0.00391,0.1211839 0.00391,0.1855469 0,0.062576 -0.00235,0.1551824 -0.00781,0.2753906 -0.00549,0.064342 -0.010929,0.1328864 -0.013672,0.2070313 -0.00276,0.074476 -0.00506,0.1512874 -0.00781,0.2285156 v 0.00195 0.2324219 0.00195 c 0.00275,0.074162 0.00815,0.1411214 0.013672,0.203125 0.00362,0.083252 0.024814,0.1739929 0.1074218,0.2265625 l 0.00195,0.00195 h 0.00391 c 0.056462,0.032939 0.1250001,0.046319 0.1894531,0.037109 0.053892,-0.0074 0.106389,-0.023617 0.1542969,-0.048828 l 0.00391,-0.00195 c 0.040823,-0.020522 0.072964,-0.038994 0.1035156,-0.064453 l 0.082031,-0.068359 -0.050781,-0.091797 c -0.00298,-0.00536 -0.011295,-0.027969 -0.017578,-0.056641 v -0.00195 c -0.0051,-0.041087 -0.00918,-0.081071 -0.011719,-0.1191406 v -0.00391 l -0.00195,-0.00195 c -0.0047,-0.042348 -0.00436,-0.087058 -0.00195,-0.1328125 v -0.00195 -0.00391 c 0,-0.063309 0.00757,-0.1386649 0.025391,-0.2226563 0.017823,-0.086569 0.042601,-0.164639 0.072266,-0.2363281 v -0.00195 c 0.029416,-0.07354 0.063349,-0.1309439 0.097656,-0.1738282 0.023714,-0.028696 0.028802,-0.028067 0.033203,-0.029297 0.00169,0.00389 0.00362,0.00556 0.00781,0.029297 0.00255,0.014439 0.00208,0.066406 -0.017578,0.1425782 L 5.6738281,3.125 5.8691406,3.09375 c 0.056482,-0.00941 0.1088698,-0.033604 0.15625,-0.066406 v -0.00195 c 0.047063,-0.033617 0.089767,-0.073241 0.1269531,-0.1171875 0.035372,-0.041803 0.065931,-0.085786 0.089844,-0.1328125 v -0.00195 c 0.029331,-0.055538 0.048828,-0.117265 0.048828,-0.179694 0,-0.037932 -0.00657,-0.067104 -0.015625,-0.109375 -0.01072,-0.050026 -0.029063,-0.099142 -0.052734,-0.1464844 -0.025586,-0.051172 -0.059473,-0.097278 -0.1015625,-0.1367187 -4.431e-4,-4.432e-4 -0.00151,4.396e-4 -0.00195,0 -0.055048,-0.054222 -0.1338088,-0.082031 -0.2089844,-0.082031 z m 0,0.2558594 c 0.023434,0 0.023761,0.00228 0.029297,0.00781 l 0.00195,0.00195 0.00195,0.00195 c 0.02223,0.020377 0.038603,0.042051 0.050781,0.066406 0.014914,0.029828 0.023481,0.058794 0.029297,0.085937 0.00748,0.034908 0.00977,0.059568 0.00977,0.054687 0,0.014109 -0.00334,0.033853 -0.017578,0.060547 v 0.00195 h -0.00195 C 6.0049732,2.67363 5.9926832,2.691611 5.9804702,2.708971 5.969096,2.6636267 5.9572713,2.6182984 5.9238281,2.5800781 5.8821542,2.5331951 5.8183704,2.5013029 5.7558594,2.4960938 L 5.75,2.4941406 H 5.74414 c -0.024048,0 -0.036454,0.026895 -0.058594,0.033203 0.00448,-0.00594 0.00713,-0.013715 0.011719,-0.019531 0.033144,-0.041981 0.068037,-0.072781 0.1074219,-0.097656 l 0.00195,-0.00195 0.00195,-0.00195 C 5.8410159,2.3840666 5.8709765,2.375 5.9101562,2.375 Z M 5.3105469,2.433594 c -0.00158,0.020032 -0.00168,0.022395 -0.00391,0.046875 v 0.00195 c -0.00536,0.085783 -0.012641,0.1770099 -0.023437,0.2714844 l 0.1289063,0.03125 c -0.01483,0.029318 -0.033971,0.051723 -0.046875,0.083984 -0.036151,0.087691 -0.065306,0.1829928 -0.085937,0.2832032 -0.019909,0.094392 -0.030658,0.1827878 -0.03125,0.265625 -1.044e-4,0.00199 9.39e-5,0.00388 0,0.00586 -1.1e-6,5.994e-4 0,0.00135 0,0.00195 -0.00256,0.056247 -1.699e-4,0.111698 0.00586,0.1660156 l -0.00195,-0.00391 c 0.00293,0.043994 0.00787,0.088375 0.013672,0.1347657 v 0.00391 l 0.00195,0.00391 c 0.00134,0.00713 0.00439,0.012628 0.00586,0.019531 -0.019338,0.00923 -0.039493,0.016464 -0.0625,0.019531 h -0.00195 c -0.010655,0.00152 -0.013065,-4.817e-4 -0.019531,-0.00391 0.016036,0.011903 0.011516,0.020716 0.00977,-0.019531 v -0.00195 -0.00391 C 5.1940648,3.6835529 5.1901837,3.6196371 5.1875,3.5488281 v -0.00391 -0.21875 -0.00391 C 5.1902,3.2465211 5.1926,3.1726729 5.19531,3.0996019 5.198,3.0270089 5.20173,2.9593339 5.207029,2.89843 V 2.89648 2.89453 c 0.00556,-0.1223261 0.00977,-0.2173935 0.00977,-0.2871094 0,-0.045062 -0.00266,-0.088083 -0.00391,-0.1308594 0.028472,-0.015562 0.058996,-0.028589 0.091797,-0.041016 0.00246,-8.665e-4 0.00346,-0.00114 0.00586,-0.00195 z"
           id="path393" />
      </g>
      <g
         id="path364">
        <path
           style="color:#000000;-inkscape-font-specification:'Rancho, Normal';fill:#000000;stroke:none;stroke-opacity:1;-inkscape-stroke:none"
           d="m 6.8485897,3.9091656 q -0.2893877,0 -0.446484,-0.1943032 -0.1570962,-0.1943032 -0.1570962,-0.5084957 0,-0.2191079 0.062012,-0.409277 0.066146,-0.1943032 0.1736326,-0.334863 0.1074869,-0.1405598 0.2480467,-0.2191079 0.1446939,-0.082682 0.3017901,-0.082682 0.1529621,0 0.260449,0.111621 0.1074869,0.1074869 0.1074869,0.3100583 0,0.1322916 -0.057878,0.2645831 -0.057878,0.1281575 -0.1529622,0.2315103 -0.09095,0.099219 -0.2025714,0.1612303 -0.111621,0.062012 -0.2149738,0.062012 -0.066146,0 -0.111621,-0.016536 -0.045475,-0.016536 -0.082682,-0.049609 0.012402,0.2356443 0.1033528,0.3307289 0.09095,0.09095 0.2356443,0.09095 0.099219,0 0.1736327,-0.041341 0.078548,-0.041341 0.1322915,-0.095085 0.053744,-0.053743 0.086816,-0.1074869 0.033073,-0.057878 0.045475,-0.086816 0.012402,-0.024805 0.041341,-0.024805 0.033073,0 0.033073,0.049609 0,0.045475 -0.033073,0.1405598 -0.028939,0.09095 -0.099219,0.186035 -0.07028,0.09095 -0.1819009,0.1612303 -0.1074868,0.07028 -0.2645831,0.07028 z M 7.0387588,2.3382034 q -0.024805,0 -0.095085,0.053743 -0.066146,0.049609 -0.1446939,0.148828 Q 6.7245664,2.6399935 6.6584206,2.7805533 6.596409,2.9169789 6.5798725,3.0906116 6.8279192,3.032734 6.9726131,2.9087107 7.117307,2.7846874 7.117307,2.5449089 q 0,-0.1198892 -0.028939,-0.1612303 -0.028939,-0.045475 -0.049609,-0.045475 z"
           id="path397" />
        <path
           style="color:#000000;-inkscape-font-specification:'Rancho, Normal';fill:#000000;fill-opacity:0;stroke:none;stroke-opacity:1;-inkscape-stroke:none"
           d="m 7.03125,2.03125 c -0.1272745,0 -0.2533317,0.034549 -0.3671875,0.099609 C 6.5545631,2.1922927 6.4596568,2.2791688 6.3789062,2.3847656 6.2976193,2.4910642 6.2334408,2.6151713 6.1855469,2.7558594 v 0.00195 c -0.045851,0.1406088 -0.068359,0.2910243 -0.068359,0.4492188 0,0.230878 0.059526,0.4320221 0.1855469,0.5878906 0.1289849,0.1595339 0.3232374,0.2421875 0.5449218,0.2421875 0.1232206,0 0.2386344,-0.028004 0.3339844,-0.089844 0.085274,-0.053691 0.1576568,-0.1174 0.2148438,-0.1914062 h 0.00195 v -0.00195 c 0.052923,-0.071602 0.092632,-0.1446219 0.1171875,-0.2207032 0.024137,-0.069393 0.041016,-0.1201722 0.041016,-0.1816406 0,-0.030814 -0.00381,-0.068209 -0.03125,-0.109375 -0.027444,-0.041166 -0.08771,-0.068359 -0.1308594,-0.068359 -0.056007,0 -0.1301038,0.043409 -0.15625,0.095703 l -0.00195,0.00195 -0.00195,0.00391 c -0.0042,0.00979 -0.018158,0.037636 -0.039063,0.074219 -0.015669,0.024841 -0.037583,0.051256 -0.066406,0.080078 -0.025345,0.025345 -0.056864,0.049768 -0.099609,0.072266 h -0.00195 l -0.00195,0.00195 c -0.028415,0.015786 -0.063029,0.025391 -0.1113281,0.025391 -0.068406,0 -0.1065562,-0.017422 -0.1425781,-0.052734 v -0.00195 c -0.00496,-0.0053 -0.00837,-0.037706 -0.013672,-0.046875 0.00413,7.65e-5 0.00755,0.00195 0.011719,0.00195 0.094602,0 0.1882117,-0.028607 0.2773438,-0.078125 0.086451,-0.048028 0.1653177,-0.110445 0.234375,-0.1855469 0.072512,-0.078817 0.1316649,-0.1679394 0.1757812,-0.265625 v -0.00195 h 0.00195 c 0.04489,-0.1026045 0.068359,-0.2094722 0.068359,-0.3164062 0,-0.1568483 -0.045567,-0.2983296 -0.1445312,-0.3984375 C 7.2900292,2.0872419 7.1644814,2.03125 7.03125,2.03125 Z M 6.8046875,2.3515625 c -0.035399,0.033867 -0.071399,0.063872 -0.1074219,0.109375 v 0.00195 h -0.00195 c -0.056122,0.07483 -0.1053048,0.1637106 -0.1523469,0.263675 h -0.00195 c -0.034193,0.075226 -0.048678,0.1633885 -0.064453,0.25 l -0.044922,-0.041016 0.011719,0.2304687 -0.00781,0.089844 0.015625,-0.00391 C 6.4612607,3.4189147 6.4929757,3.5571 6.5859433,3.654293 l 0.00195,0.00195 c 0.076052,0.076052 0.1834009,0.1072016 0.2929688,0.1152344 -0.013282,0.00104 -0.018536,0.00977 -0.033203,0.00977 -0.1641654,0 -0.2652265,-0.046948 -0.3457031,-0.1464844 C 6.418513,3.5315634 6.3730469,3.3950761 6.3730469,3.2070313 c 0,-0.1339491 0.019809,-0.2561909 0.056641,-0.3691407 h -0.00195 C 6.468035,2.719508 6.5200028,2.6221299 6.5820312,2.5410156 6.644287,2.4596042 6.7136262,2.3987158 6.7910156,2.3554688 h 0.00195 c 0.00394,-0.00225 0.00779,-0.00177 0.011719,-0.00391 z M 7.21875,2.4257813 c 0.023552,0.040863 0.050781,0.075938 0.050781,0.15625 0,0.069455 -0.014594,0.1391066 -0.046875,0.2128906 C 7.189693,2.8674949 7.14764,2.9316574 7.0937498,2.9902344 v 0.00195 C 7.0418,3.0488607 6.9838079,3.0925463 6.921875,3.1269531 c -0.059696,0.033164 -0.1091421,0.046875 -0.1523438,0.046875 -0.02748,0 -0.041941,-0.00437 -0.054687,-0.00781 0.1268162,-0.041603 0.252715,-0.0838 0.3417969,-0.1601562 0.1275301,-0.1093115 0.1894531,-0.2752377 0.1894531,-0.4609375 0,-0.045929 -0.020544,-0.080509 -0.027344,-0.1191406 z M 6.9863281,2.5292969 c 9.6e-4,0.010266 0.00195,0.00321 0.00195,0.015625 0,0.1340045 -0.034214,0.2095722 -0.099609,0.265625 -0.027333,0.023429 -0.084675,0.0346 -0.1210938,0.054687 0.00348,-0.00863 0.00405,-0.020973 0.00781,-0.029297 v -0.00195 c 0.04019,-0.085162 0.082941,-0.1562944 0.125,-0.2128906 l 0.00195,-0.00391 c 0.033031,-0.041352 0.058458,-0.06445 0.083984,-0.087891 z"
           id="path399" />
      </g>
      <g
         id="path366">
        <path
           style="color:#000000;-inkscape-font-specification:'Rancho, Normal';fill:#000000;stroke:none;stroke-opacity:1;-inkscape-stroke:none"
           d="m 8.2211145,3.9091656 q -0.2893878,0 -0.446484,-0.1943032 -0.1570962,-0.1943032 -0.1570962,-0.5084957 0,-0.2191079 0.062012,-0.409277 0.066146,-0.1943032 0.1736327,-0.334863 0.1074869,-0.1405598 0.2480466,-0.2191079 0.1446939,-0.082682 0.3017902,-0.082682 0.1529621,0 0.260449,0.111621 0.1074868,0.1074869 0.1074868,0.3100583 0,0.1322916 -0.057878,0.2645831 -0.057878,0.1281575 -0.1529621,0.2315103 -0.09095,0.099219 -0.2025715,0.1612303 -0.111621,0.062012 -0.2149737,0.062012 -0.066146,0 -0.111621,-0.016536 -0.045475,-0.016536 -0.082682,-0.049609 0.012402,0.2356443 0.1033528,0.3307289 0.09095,0.09095 0.2356443,0.09095 0.099219,0 0.1736327,-0.041341 0.078548,-0.041341 0.1322916,-0.095085 0.053743,-0.053743 0.086816,-0.1074869 0.033073,-0.057878 0.045475,-0.086816 0.012402,-0.024805 0.041341,-0.024805 0.033073,0 0.033073,0.049609 0,0.045475 -0.033073,0.1405598 -0.028939,0.09095 -0.099219,0.186035 -0.07028,0.09095 -0.1819009,0.1612303 -0.1074869,0.07028 -0.2645823,0.07028 z M 8.4112836,2.3382034 q -0.024805,0 -0.095085,0.053743 -0.066146,0.049609 -0.1446939,0.148828 Q 8.0970907,2.6399934 8.030945,2.7805529 7.968933,2.9169785 7.952397,3.0906112 8.2004437,3.0327332 8.3451376,2.9087103 8.4898315,2.784687 8.4898315,2.5449085 q 0,-0.1198892 -0.028939,-0.1612303 -0.028939,-0.045475 -0.049609,-0.045475 z"
           id="path403" />
        <path
           style="color:#000000;-inkscape-font-specification:'Rancho, Normal';fill:#000000;fill-opacity:0;stroke:none;stroke-opacity:1;-inkscape-stroke:none"
           d="m 8.4023438,2.03125 c -0.1272746,0 -0.2513786,0.034549 -0.3652344,0.099609 C 7.92761,2.1922928 7.8327036,2.2791688 7.7519531,2.3847656 7.6706661,2.4910642 7.6064877,2.6151713 7.5585937,2.7558594 l -0.00195,0.00195 c -0.045851,0.1406088 -0.068359,0.2910243 -0.068359,0.4492188 0,0.230878 0.059526,0.4320221 0.1855469,0.5878906 0.1289849,0.1595339 0.3251905,0.2421875 0.546875,0.2421875 0.1232204,2e-7 0.2386342,-0.028003 0.3339844,-0.089844 0.085273,-0.053691 0.1576567,-0.1174 0.2148438,-0.1914062 l 0.00195,-0.00195 c 0.053115,-0.071862 0.092656,-0.144325 0.1171871,-0.220703 V 3.53125 c 0.023724,-0.068327 0.039063,-0.1188509 0.039063,-0.1796875 0,-0.030814 -0.00185,-0.068209 -0.029297,-0.109375 -0.027444,-0.041166 -0.08771,-0.068359 -0.1308594,-0.068359 -0.056007,0 -0.1301038,0.043409 -0.15625,0.095703 l -0.00195,0.00195 -0.00195,0.00391 c -0.0042,0.00979 -0.018158,0.037636 -0.039063,0.074219 -0.01567,0.024843 -0.037583,0.051255 -0.066406,0.080078 -0.025345,0.025345 -0.058817,0.049768 -0.1015625,0.072266 l -0.00195,0.00195 c -0.028415,0.015786 -0.063029,0.025391 -0.1113281,0.025391 -0.068406,0 -0.1065562,-0.017422 -0.1425781,-0.052734 v -0.00195 c -0.00496,-0.0053 -0.00837,-0.037706 -0.013672,-0.046875 0.00408,7.46e-5 0.0076,0.00195 0.011719,0.00195 0.094602,0 0.1882117,-0.028607 0.2773438,-0.078125 0.086896,-0.048275 0.1650584,-0.1099282 0.234375,-0.1855469 0.072511,-0.078817 0.1316648,-0.1679394 0.1757812,-0.265625 v -0.00195 C 8.874968,2.795833 8.9003906,2.6889653 8.9003906,2.5820313 8.9003906,2.425183 8.8548233,2.2837017 8.7558594,2.1835938 8.6630761,2.0872419 8.5355751,2.03125 8.4023438,2.03125 Z M 8.1777344,2.3515625 c -0.035606,0.033994 -0.071194,0.063613 -0.1074219,0.109375 v 0.00195 h -0.00195 c -0.05612,0.074827 -0.1072548,0.1637076 -0.1542969,0.2636719 -0.034194,0.075226 -0.048678,0.1633884 -0.064453,0.25 l -0.044922,-0.041016 0.011719,0.2246094 -0.00977,0.095703 0.017578,-0.00391 c 0.010084,0.1669655 0.041798,0.3051508 0.1347657,0.4023438 v 0.00195 h 0.00195 c 0.076052,0.076052 0.1834009,0.1072016 0.2929688,0.1152344 -0.013282,0.00104 -0.018536,0.00977 -0.033203,0.00977 C 8.0565376,3.78125 7.9554765,3.7343024 7.875,3.6347656 7.7915599,3.5315634 7.7460937,3.3950761 7.7460937,3.2070313 c 10e-8,-0.1339491 0.017856,-0.2561909 0.054687,-0.3691407 0.040301,-0.1183826 0.092268,-0.2157607 0.1542969,-0.296875 0.062256,-0.081411 0.131595,-0.1422998 0.2089844,-0.1855468 0.00455,-0.0026 0.00914,-0.00147 0.013672,-0.00391 z m 0.4140625,0.074219 c 0.023552,0.040863 0.050781,0.075938 0.050781,0.15625 0,0.069455 -0.014594,0.1391066 -0.046875,0.2128906 -0.032964,0.072579 -0.076965,0.1367317 -0.1308593,0.1953125 v 0.00195 c -0.05195,0.056673 -0.107989,0.1003588 -0.1699219,0.1347656 -0.059696,0.033164 -0.1091422,0.046875 -0.1523438,0.046875 -0.026711,0 -0.041887,-0.00449 -0.054687,-0.00781 0.126816,-0.041603 0.252715,-0.083801 0.3417969,-0.1601562 0.1275301,-0.1093115 0.1894531,-0.2752377 0.1894531,-0.4609375 0,-0.045929 -0.020544,-0.080509 -0.027344,-0.11914 z M 8.359375,2.5273438 c 0.00116,0.011214 0.00195,0.00362 0.00195,0.017578 0,0.1340045 -0.034214,0.2095722 -0.099609,0.265625 -0.027333,0.023428 -0.084675,0.0346 -0.1210938,0.054687 0.0037,-0.00917 0.0038,-0.022426 0.00781,-0.03125 0.040043,-0.084711 0.081155,-0.1565193 0.1230469,-0.2128906 l 0.00195,-0.00391 c 0.033781,-0.042291 0.060054,-0.066293 0.085937,-0.089844 z"
           id="path405" />
      </g>
      <g
         id="path368">
        <path
           style="color:#000000;-inkscape-font-specification:'Rancho, Normal';fill:#000000;stroke:none;stroke-opacity:1;-inkscape-stroke:none"
           d="m 10.160012,2.5945183 q 0,0.057878 -0.03307,0.1198892 -0.02894,0.057878 -0.07441,0.111621 -0.04548,0.053743 -0.1033532,0.095085 Q 9.8954358,2.9583205 9.845826,2.9665885 9.878899,2.838431 9.866496,2.7681511 9.854094,2.6978711 9.825155,2.6647984 9.792082,2.6275914 9.742473,2.6234574 q -0.074414,0 -0.1446939,0.086816 -0.066146,0.082682 -0.1157551,0.2067055 -0.049609,0.1198893 -0.078548,0.260449 -0.028939,0.1364257 -0.028939,0.2480467 -0.00413,0.078548 0.00413,0.1529621 0.00413,0.062012 0.012402,0.1281575 0.012402,0.066146 0.033073,0.1033527 Q 9.399337,3.8306179 9.34146,3.8595559 9.287717,3.8884949 9.2257049,3.8967629 9.1678269,3.9050329 9.118218,3.8760919 9.072743,3.8471529 9.068609,3.7520686 9.060339,3.6611186 9.056207,3.5494971 q 0,-0.1157551 0,-0.2273761 0.00413,-0.1157551 0.00827,-0.2273761 0.00413,-0.111621 0.012402,-0.2067055 0.00827,-0.1819009 0.00827,-0.2811196 0,-0.099219 -0.00413,-0.1901691 0,-0.016536 0.053744,-0.045475 0.057878,-0.033073 0.1240233,-0.057878 0.07028,-0.024805 0.1281575,-0.028939 0.057878,-0.00413 0.057878,0.024805 0,0.045475 -0.012402,0.1819009 -0.00827,0.1322915 -0.024805,0.2769854 0.028939,-0.078548 0.074414,-0.1694985 0.049609,-0.090951 0.111621,-0.1694986 0.062012,-0.078548 0.1405598,-0.1281574 0.078548,-0.053743 0.1736327,-0.053743 0.074414,0 0.1198897,0.045475 0.04961,0.045475 0.07855,0.1033527 0.02894,0.057878 0.04134,0.1157551 0.0124,0.057878 0.0124,0.082682 z"
           id="path409" />
        <path
           style="color:#000000;-inkscape-font-specification:'Rancho, Normal';fill:#000000;fill-opacity:0;stroke:none;stroke-opacity:1;-inkscape-stroke:none"
           d="m 9.9082031,2.1191406 c -0.0876,0 -0.1737853,0.026698 -0.2460937,0.076172 -0.037857,0.024362 -0.068949,0.059859 -0.1015625,0.091797 -0.011655,-0.047207 -0.0437,-0.1015968 -0.080078,-0.1171875 -0.042903,-0.018387 -0.073597,-0.015807 -0.1035157,-0.013672 -0.053116,0.00379 -0.104976,0.015681 -0.1601562,0.035156 l -0.00195,0.00195 h -0.00195 c -0.05014,0.018803 -0.0977,0.040762 -0.1425781,0.066406 -0.020785,0.011308 -0.03911,0.022577 -0.058594,0.039063 -0.020684,0.017501 -0.058594,0.042069 -0.058594,0.1171875 v 0.00391 0.00195 c 0.00266,0.058518 0.00391,0.1211839 0.00391,0.1855469 0,0.062576 -0.00235,0.1551824 -0.00781,0.2753906 -0.00549,0.064342 -0.010929,0.1328864 -0.013672,0.2070313 -0.00276,0.074476 -0.00506,0.1512874 -0.00781,0.2285156 v 0.00195 0.2324219 0.00195 c 0.0028,0.075582 0.00799,0.1440729 0.013672,0.2070313 5.34e-5,5.913e-4 -5.37e-5,0.00136 0,0.00195 0.00446,0.081568 0.026825,0.1694136 0.1074218,0.2207031 l 0.00195,0.00195 h 0.00195 c 0.056462,0.032939 0.1269531,0.046319 0.1914062,0.037109 0.053892,-0.0074 0.1063889,-0.023617 0.1542969,-0.048828 l 0.00391,-0.00195 c 0.040823,-0.020522 0.072964,-0.038994 0.1035156,-0.064453 l 0.082031,-0.068359 -0.050781,-0.091797 c -0.00298,-0.00536 -0.011295,-0.027969 -0.017578,-0.056641 v -0.00195 c -0.0051,-0.041087 -0.00918,-0.081071 -0.011719,-0.1191406 l -0.00195,-0.00391 v -0.00195 c -0.0047,-0.042348 -0.00631,-0.087058 -0.00391,-0.1328125 l 0.00195,-0.00195 v -0.00391 c 0,-0.063309 0.00757,-0.1386649 0.025391,-0.2226563 0.017823,-0.086569 0.042601,-0.164639 0.072266,-0.2363281 v -0.00195 c 0.029416,-0.07354 0.061395,-0.1309439 0.095703,-0.1738282 0.025284,-0.031233 0.030608,-0.028026 0.035156,-0.029297 0.00169,0.00389 0.00362,0.00556 0.00781,0.029297 0.00255,0.014438 1.261e-4,0.066406 -0.019531,0.1425782 L 9.671875,3.125 9.8671875,3.09375 C 9.9236695,3.08434 9.9741041,3.060146 10.021484,3.027344 l 0.002,-0.00195 c 0.04706,-0.033616 0.08977,-0.073245 0.126953,-0.1171875 0.03537,-0.041802 0.06593,-0.085789 0.08984,-0.1328125 v -0.00195 c 0.02933,-0.055531 0.04883,-0.1172607 0.04883,-0.1796875 0,-0.037899 -0.0066,-0.067093 -0.01563,-0.109375 -0.01072,-0.050028 -0.02906,-0.099141 -0.05274,-0.1464844 -0.02559,-0.051171 -0.05947,-0.097278 -0.101562,-0.1367187 -4.44e-4,-4.432e-4 -0.0015,4.396e-4 -0.002,0 -0.05505,-0.054222 -0.1338094,-0.082031 -0.2089849,-0.082031 z m 0,0.2558594 c 0.023433,0 0.023761,0.00228 0.029297,0.00781 l 0.00195,0.00195 0.00195,0.00195 c 0.022231,0.020378 0.038603,0.042051 0.050781,0.066406 0.014914,0.029827 0.023483,0.058797 0.029296,0.085937 0.0075,0.034909 0.0098,0.059565 0.0098,0.054687 0,0.014111 -0.0033,0.033853 -0.01758,0.060547 v 0.00195 h -0.002 C 10.002897,2.673933 9.9890291,2.69131 9.9765411,2.708971 9.9651873,2.6636902 9.9552766,2.6182509 9.921875,2.5800781 9.880201,2.5331951 9.8164173,2.5013029 9.7539063,2.4960938 l -0.00586,-0.00195 h -0.00586 c -0.024048,0 -0.036454,0.026895 -0.058594,0.033203 0.00448,-0.00594 0.00713,-0.013715 0.011719,-0.019531 0.033143,-0.041981 0.068037,-0.072781 0.1074219,-0.097656 l 0.00195,-0.00195 0.00195,-0.00195 C 9.8390628,2.3840666 9.8690233,2.375 9.9082031,2.375 Z M 9.3046875,2.433594 c 0.00146,-5.006e-4 0.00246,4.802e-4 0.00391,0 -0.00158,0.020032 -0.00168,0.022395 -0.00391,0.046875 v 0.00195 c -0.00536,0.085783 -0.014594,0.1770099 -0.025391,0.2714844 l 0.1308594,0.03125 c -0.01483,0.029318 -0.033971,0.051723 -0.046875,0.083984 -0.036152,0.087691 -0.065306,0.1829928 -0.085937,0.2832032 -0.019909,0.094392 -0.030658,0.1827878 -0.03125,0.265625 -1.045e-4,0.00199 9.39e-5,0.00387 0,0.00586 -1.1e-6,5.994e-4 0,0.00135 0,0.00195 -0.00256,0.056246 -0.00212,0.1116996 0.00391,0.1660156 0.00293,0.042798 0.00804,0.0858 0.013672,0.1308594 v 0.00391 l 0.00195,0.00391 c 0.00134,0.00713 0.00439,0.012628 0.00586,0.019531 -0.019338,0.00923 -0.039493,0.016464 -0.0625,0.019531 h -0.00195 c -0.010655,0.00152 -0.013065,-4.817e-4 -0.019531,-0.00391 0.016036,0.011903 0.011515,0.020716 0.00977,-0.019531 v -0.00195 -0.00391 c -0.00515,-0.056681 -0.00904,-0.1205973 -0.011719,-0.1914063 v -0.00391 -0.21875 -0.00391 c 0.0027,-0.075737 0.0051,-0.1495852 0.00781,-0.2226562 0.00269,-0.072593 0.00642,-0.140268 0.011719,-0.2011719 v -0.00195 -0.00195 c 0.00556,-0.1223261 0.00781,-0.2173935 0.00781,-0.2871094 0,-0.045057 -7.03e-4,-0.088087 -0.00195,-0.1308594 0.02797,-0.015287 0.057699,-0.028753 0.089844,-0.041016 z"
           id="path411" />
      </g>
      <g
         id="path370">
        <path
           style="color:#000000;-inkscape-font-specification:'Rancho, Normal';fill:#000000;stroke:none;stroke-opacity:1;-inkscape-stroke:none"
           d="m 10.461802,2.9665883 q -0.04961,0.016536 -0.103352,-0.00413 -0.04961,-0.024805 -0.09095,-0.074414 -0.04134,-0.049609 -0.06615,-0.1157552 -0.02067,-0.066146 -0.02067,-0.1405597 0.05374,-0.00827 0.115755,-0.016536 0.06201,-0.012402 0.115755,-0.020671 0.06201,-0.00827 0.119889,-0.016536 0.0041,-0.2397784 0.0083,-0.4547522 0.0083,-0.2191079 0.0124,-0.3886064 0.0083,-0.1736327 0.0124,-0.2893878 0.0083,-0.1198892 0.0124,-0.1612304 0,-0.020671 0.02067,-0.041341 0.03307,-0.024805 0.09508,-0.07028 0.06615,-0.045475 0.148828,-0.082682 0.07028,-0.028939 0.09095,0.020671 0.02481,0.045475 0.02481,0.1777668 -0.0083,0.186035 -0.01654,0.5002274 -0.0083,0.3141924 -0.01654,0.7400059 0.06615,-0.00827 0.128157,-0.012402 0.06201,-0.00413 0.132292,-0.00827 0.190169,-0.00827 0.367936,-0.020671 0.181901,-0.012402 0.318326,0 0.02067,-0.5911779 0.0124,-0.8846998 -0.0083,-0.297656 -0.0083,-0.3513994 0,-0.024805 0.05374,-0.057878 0.05374,-0.033073 0.115755,-0.057878 0.06615,-0.028939 0.119889,-0.037207 0.05374,-0.012402 0.05788,0.00413 0.0041,0.028939 0,0.1446938 0,0.1157552 -0.0041,0.3265948 0,0.2067056 0,0.5167639 0.0041,0.3100583 0.01654,0.7234695 -0.0083,0.1901691 -0.0083,0.3968746 0,0.1777668 0.0083,0.3968747 0.0083,0.2191079 0.03721,0.4423499 -0.05374,0.045475 -0.115755,0.07028 -0.06201,0.024805 -0.119889,0.041341 -0.06615,0.016536 -0.132292,0.024805 -0.03721,0.00413 -0.06201,-0.016536 -0.02067,-0.016536 -0.02894,-0.045475 -0.0083,-0.024805 -0.0124,-0.053743 0,-0.028939 0,-0.053743 0,-0.053744 0,-0.1033528 0.0041,-0.045475 0.0083,-0.074414 0.0083,-0.1777668 0.02067,-0.4299475 0.0124,-0.2521808 0.02481,-0.5622392 -0.02894,-0.00413 -0.05374,-0.00413 -0.0248,-0.00413 -0.05788,-0.00827 -0.186035,-0.012402 -0.405143,0 -0.214974,0.012402 -0.421679,0.041341 -0.0041,0.2025715 0,0.3844724 0.0041,0.1777667 0.0083,0.3265947 0.0083,0.1446939 0.01654,0.2521808 0.0083,0.1033528 0.01654,0.1529621 0.0041,0.041341 -0.0124,0.057878 -0.01654,0.020671 -0.04961,0.053743 -0.02894,0.033073 -0.07855,0.062012 -0.04547,0.033073 -0.111621,0.053743 -0.06615,0.024805 -0.152962,0.024805 -0.04134,0 -0.04134,-0.037207 0,-0.053743 0,-0.1694986 0.0041,-0.1157551 0.0041,-0.2811195 0.0041,-0.1653645 0.0041,-0.3679359 0.0041,-0.2067056 0.0083,-0.4382158 -0.02067,0.00413 -0.03721,0.00827 -0.0124,0.00413 -0.02894,0.00827 z"
           id="path415" />
        <path
           style="color:#000000;-inkscape-font-specification:'Rancho, Normal';fill:#000000;fill-opacity:0;stroke:none;stroke-opacity:1;-inkscape-stroke:none"
           d="m 10.927734,0.95507813 c -0.05438,-0.0123602 -0.09733,2.1264e-4 -0.134765,0.015625 h -0.002 l -0.002,0.001953 c -0.06129,0.0275815 -0.116756,0.0585436 -0.167969,0.09375 l -0.002,0.00195 h -0.002 c -0.04154,0.030463 -0.07297,0.055213 -0.0957,0.072266 l -0.0078,0.00391 -0.0059,0.00781 c -0.02893,0.028925 -0.05859,0.074248 -0.05859,0.1308594 -0.003,0.031963 -0.0066,0.07769 -0.01172,0.1523438 v 0.00391 0.00195 c -0.0027,0.076376 -0.0082,0.1717068 -0.01367,0.2871094 v 0.00195 0.00195 c -0.0027,0.1122414 -0.0062,0.2410996 -0.01172,0.3867187 v 0.00195 c -0.0021,0.1083433 -0.0038,0.2259849 -0.0059,0.34375 -0.004,5.398e-4 -0.0077,0.00141 -0.01172,0.00195 h -0.002 c -0.03803,0.00585 -0.07814,0.012893 -0.121094,0.021484 -0.039,0.00524 -0.07498,0.010331 -0.109375,0.015625 l -0.109375,0.017578 v 0.109375 c 0,0.061507 0.0075,0.1224962 0.02539,0.1796875 l 0.002,0.00391 v 0.00391 c 0.02107,0.056181 0.05044,0.1074056 0.08789,0.1523437 0.037,0.044401 0.08186,0.081946 0.132812,0.1074219 l 0.0059,0.00195 0.0059,0.00195 c 0.02611,0.010039 0.05529,-2.385e-4 0.08398,0.00195 -0.0019,0.1025014 -0.004,0.2061031 -0.0059,0.3007812 v 0.00195 0.00195 c 0,0.1341805 -0.0012,0.2562912 -0.0039,0.3652344 v 0.00195 c 0,0.1091808 -0.0012,0.202337 -0.0039,0.2773437 v 0.00195 0.171875 c 0,0.036198 0.01418,0.08835 0.05273,0.1230469 0.03855,0.034697 0.08413,0.042969 0.117187,0.042969 0.06798,0 0.131573,-0.0097 0.191407,-0.03125 l 0.0059,-0.00195 c 0.05237,-0.016917 0.100222,-0.039505 0.142578,-0.070312 0.0352,-0.021549 0.06664,-0.046609 0.09375,-0.076172 l 0.0059,-0.00586 c 0.01716,-0.017341 0.03213,-0.031705 0.04492,-0.046875 0.05258,-0.052692 0.0534,-0.1160278 0.04883,-0.1621094 v -0.00391 l -0.002,-0.00391 c -0.0043,-0.025723 -0.0083,-0.075423 -0.01367,-0.1425781 -0.0053,-0.069449 -0.01217,-0.150178 -0.01758,-0.2441406 v -0.00391 c -0.0028,-0.098 -0.0051,-0.2053556 -0.0078,-0.3222656 -0.0019,-0.083583 -7.6e-4,-0.1750676 0,-0.265625 0.09912,-0.011611 0.198618,-0.023403 0.300781,-0.029297 0.136629,-0.00773 0.260483,-0.00705 0.375,0 -0.0065,0.1552396 -0.01307,0.3080328 -0.01953,0.4394532 -0.008,0.1636137 -0.01407,0.3012334 -0.01953,0.4179687 -0.0033,0.022879 -0.0049,0.050234 -0.0078,0.082031 l -0.002,0.00586 v 0.109375 0.0625 l 0.002,0.00781 c 0.0035,0.024746 0.008,0.048769 0.01563,0.072266 2.38e-4,8.314e-4 0.0017,0.00112 0.002,0.00195 1.99e-4,6.037e-4 -2.01e-4,0.00135 0,0.00195 0.01173,0.038176 0.0349,0.07591 0.06836,0.1035156 0.04405,0.036706 0.106929,0.052566 0.158203,0.046875 h 0.002 c 0.04932,-0.00617 0.09945,-0.017051 0.148437,-0.029297 h 0.002 0.002 c 0.04325,-0.012356 0.08781,-0.026922 0.132812,-0.044922 0.0546,-0.021839 0.104753,-0.053178 0.150391,-0.091797 l 0.05273,-0.044922 -0.0078,-0.070312 c -0.01879,-0.145071 -0.03173,-0.2895586 -0.03711,-0.4316406 -0.0055,-0.1447582 -0.0078,-0.2741138 -0.0078,-0.390625 0,-0.1360836 0.0024,-0.2678251 0.0078,-0.3925781 v -0.00391 -0.00391 c -0.0083,-0.274323 -0.0129,-0.5153295 -0.01563,-0.7207031 V 2.0878417 1.576123 1.574173 c 0.0027,-0.1389782 0.0039,-0.2480567 0.0039,-0.3261718 0.0027,-0.075451 0.0048,-0.1164522 -0.002,-0.1640625 v -0.00586 l -0.002,-0.00781 c -0.0091,-0.036366 -0.03928,-0.0706902 -0.06641,-0.0859375 -0.02712,-0.0152473 -0.04966,-0.0183362 -0.06641,-0.0195313 -0.03267,-0.002331 -0.05254,0.002368 -0.07617,0.007813 -0.04827,0.008061 -0.09487,0.0231955 -0.144531,0.0449218 -0.04624,0.018744 -0.09162,0.041055 -0.132813,0.066406 -0.02402,0.014782 -0.04499,0.029672 -0.06641,0.052734 -0.02141,0.023062 -0.04687,0.058614 -0.04687,0.1132813 0,0.042444 0.0023,0.1568162 0.0078,0.3554687 0.0046,0.1635475 -0.0023,0.4402434 -0.01172,0.7539063 -0.06511,-9.38e-4 -0.124728,-0.00508 -0.199219,0 -0.117316,0.00818 -0.239504,0.014063 -0.365234,0.019531 h -0.002 c -0.04301,0.00253 -0.08261,0.00723 -0.121093,0.00977 0.0044,-0.2174211 0.0092,-0.428874 0.01367,-0.5976563 0.0055,-0.2089955 0.01015,-0.37535 0.01563,-0.4980469 v -0.00195 -0.00195 c 0,-0.092293 -4.65e-4,-0.1579679 -0.03711,-0.2304688 C 11.029434,1.014683 10.981074,0.9671945 10.92762,0.95504446 Z M 10.826172,1.2441406 c 0.0027,0.020181 0.0039,0.014184 0.0039,0.044922 -0.0055,0.1248552 -0.01214,0.288614 -0.01758,0.4960937 -0.0055,0.2098712 -0.01013,0.4561359 -0.01563,0.7402344 l -0.0039,0.1484375 0.148437,-0.017578 c 0.04181,-0.00523 0.08241,-0.00914 0.121094,-0.011719 0.04036,-0.00269 0.08311,-0.00511 0.128906,-0.00781 0.127828,-0.00556 0.251388,-0.013134 0.371094,-0.021484 0.116192,-0.00792 0.214899,-0.00745 0.296875,0 L 11.996094,2.6269531 12,2.4921875 c 0.01383,-0.3954585 0.01739,-0.6914565 0.01172,-0.8925781 -0.0048,-0.1705262 -0.0052,-0.2539566 -0.0059,-0.3007813 0.02691,-0.015929 0.0563,-0.032287 0.08789,-0.044922 -6.4e-5,0.075367 -0.0012,0.1796792 -0.0039,0.3164063 v 0.00195 0.5195313 c 0.0027,0.2076684 0.0093,0.4504141 0.01758,0.7265625 -0.0054,0.1259339 -0.0098,0.2564392 -0.0098,0.3925781 0,0.120511 0.0042,0.2530052 0.0098,0.4003906 0.0046,0.1223943 0.01725,0.2470164 0.03125,0.3710938 -0.0098,0.00539 -0.01907,0.013486 -0.0293,0.017578 -0.03768,0.015073 -0.0735,0.027418 -0.107422,0.037109 -0.0242,0.00595 -0.04821,0.00961 -0.07226,0.013672 v -0.033203 -0.091797 c 0.0026,-0.028836 0.0055,-0.052653 0.0078,-0.068359 v -0.00586 -0.00586 c 0.0055,-0.118368 0.01324,-0.2616382 0.02148,-0.4296875 0.0083,-0.1686003 0.01711,-0.3574298 0.02539,-0.5644531 l 0.0039,-0.1152344 -0.115234,-0.017578 c -0.02438,-0.00348 -0.0486,-0.00391 -0.07227,-0.00391 h 0.02149 c -0.0188,-0.00313 -0.03915,-0.00489 -0.0625,-0.00781 h -0.0039 -0.0039 c -0.1302,-0.00868 -0.271342,-0.010474 -0.421875,-0.00195 -0.146689,0.00846 -0.290276,0.023177 -0.43164,0.042969 l -0.107422,0.015625 -0.002,0.109375 c -0.0028,0.1366919 -0.0028,0.2673188 0,0.390625 0.0027,0.1186958 0.005,0.2266898 0.0078,0.3261719 v 0.00195 0.00195 c 0.0056,0.097074 0.01005,0.1830985 0.01563,0.2558594 0.0047,0.058841 0.01034,0.099512 0.01563,0.1367187 -0.0072,0.00794 -0.01172,0.013667 -0.02344,0.025391 l -0.002,0.00391 -0.0039,0.00391 c -0.0076,0.00864 -0.02281,0.021119 -0.04687,0.035156 l -0.0039,0.00391 -0.0059,0.00391 c -0.01664,0.012103 -0.04074,0.022742 -0.07422,0.033203 l -0.0039,0.00195 -0.0039,0.00195 c -0.0048,0.00182 -0.01412,3.829e-4 -0.01953,0.00195 v -0.060547 -0.00391 c 0.0027,-0.077579 0.0039,-0.1695213 0.0039,-0.2773438 v -0.00391 c 0.0027,-0.1100328 0.0039,-0.2315927 0.0039,-0.3652344 v -0.00195 c 0.0027,-0.1373428 0.005,-0.2818313 0.0078,-0.4355469 l 0.0039,-0.1601562 -0.158203,0.03125 c -0.01541,0.00308 -0.02947,0.00639 -0.04297,0.00977 h -0.0039 l -0.0059,0.00195 h -0.002 l -0.01758,0.00586 -0.0078,0.00195 c -0.0031,0.00104 -0.0078,-9.406e-4 -0.01172,-0.00195 -0.0135,-0.00776 -0.0272,-0.016227 -0.04297,-0.035156 -0.01497,-0.017964 -0.0262,-0.042908 -0.03711,-0.068359 0.03645,-0.00718 0.07037,-0.012778 0.101563,-0.017578 l -0.002,0.00195 c 0.04171,-0.00556 0.08209,-0.012007 0.121093,-0.017578 l 0.107422,-0.015625 0.002,-0.109375 c 0.0027,-0.1583876 0.005,-0.3090605 0.0078,-0.4511718 V 2.125 c 0.0054,-0.1440058 0.01095,-0.2725529 0.01367,-0.3847656 v -0.00195 c 0.0054,-0.112745 0.009,-0.2065875 0.01172,-0.2832031 v -0.00586 c 0.0042,-0.060384 0.0074,-0.095897 0.0098,-0.1230468 0.01835,-0.013632 0.03514,-0.028756 0.0625,-0.048828 l 0.0039,-0.00195 c 0.01645,-0.011163 0.0379,-0.020706 0.05664,-0.03125 z"
           id="path417" />
      </g>
      <g
         id="path372">
        <path
           style="color:#000000;-inkscape-font-specification:'Rancho, Normal';fill:#000000;stroke:none;stroke-opacity:1;-inkscape-stroke:none"
           d="m 13.554118,2.325801 q 0,-0.045475 0.05374,-0.066146 0.05788,-0.024805 0.11989,-0.024805 0.06615,0 0.119889,0.024805 0.05374,0.020671 0.04961,0.057878 -0.0041,0.028939 -0.0083,0.1157551 -0.0041,0.082682 -0.0124,0.1984374 -0.0041,0.1157551 -0.0124,0.2480466 -0.0083,0.1322916 -0.01654,0.260449 -0.0041,0.1240234 -0.0083,0.2315103 0,0.1074868 0,0.1653644 0,0.074414 0.0083,0.1364257 0.0083,0.053743 0.02067,0.1074869 0.0124,0.049609 0.03721,0.07028 -0.03307,0.012402 -0.07028,0.016537 -0.03307,0.00413 -0.06201,0.00827 -0.03307,0.00413 -0.06615,0.00413 -0.07028,0 -0.119889,-0.028939 -0.04548,-0.028939 -0.04548,-0.1198892 0,-0.045475 0.0041,-0.1322915 0.0083,-0.086816 0.01654,-0.186035 -0.02894,0.086816 -0.07028,0.1777667 -0.04134,0.09095 -0.103352,0.1612304 -0.05788,0.07028 -0.132292,0.1157551 -0.07441,0.045475 -0.169499,0.045475 -0.107486,0 -0.198437,-0.045475 -0.08682,-0.045475 -0.152962,-0.1281575 -0.06615,-0.086816 -0.09922,-0.2108396 -0.03307,-0.1240234 -0.0248,-0.2852537 0,-0.1240233 0.0041,-0.2645831 0.0041,-0.1198892 0.0124,-0.2769854 0.0083,-0.1570963 0.02894,-0.3265948 0.0041,-0.016536 0.05788,-0.041341 0.05374,-0.024805 0.11989,-0.041341 0.06615,-0.016536 0.128157,-0.012402 0.06201,0.00413 0.09095,0.049609 -0.02067,0.074414 -0.04134,0.1777667 -0.02067,0.099219 -0.03721,0.2067056 -0.01654,0.1074869 -0.0248,0.2108397 -0.0083,0.1033527 -0.0083,0.1901691 0,0.078548 0.0083,0.1736326 0.0083,0.09095 0.02894,0.1736327 0.0248,0.078548 0.06615,0.1322916 0.04548,0.053743 0.115755,0.053743 0.07855,0 0.136426,-0.066146 0.06201,-0.07028 0.103353,-0.1777668 0.04134,-0.1074868 0.07028,-0.2439125 0.02894,-0.1405598 0.04547,-0.2769855 0.02067,-0.1364256 0.0248,-0.260449 0.0083,-0.1281574 0.0124,-0.2149737 v -0.08268 z"
           id="path421" />
        <path
           style="color:#000000;-inkscape-font-specification:'Rancho, Normal';fill:#000000;fill-opacity:0;stroke:none;stroke-opacity:1;-inkscape-stroke:none"
           d="m 13.728516,2.1054688 c -0.05847,0 -0.118017,0.012075 -0.171875,0.035156 h 0.0059 c -0.02861,0.011004 -0.05685,0.030238 -0.08203,0.056641 h -0.05469 v 0.1289063 0.082031 c -0.0027,0.055975 -0.0064,0.1244293 -0.01172,0.2070313 v 0.00195 0.00195 c -0.0026,0.077122 -0.01033,0.1595925 -0.02344,0.2460938 l -0.002,0.00195 v 0.00195 c -0.01058,0.087292 -0.02436,0.1752283 -0.04297,0.265625 -0.01814,0.085502 -0.03983,0.1605756 -0.06445,0.2246094 -0.0232,0.060325 -0.05087,0.1055649 -0.08008,0.1386719 -0.01961,0.022416 -0.02276,0.021484 -0.03906,0.021484 -0.01409,0 -0.0083,0.0031 -0.01758,-0.00781 -0.01519,-0.020783 -0.02907,-0.049024 -0.04101,-0.085937 -3.27e-4,-0.00101 -0.0016,-9.298e-4 -0.002,-0.00195 -0.0111,-0.046123 -0.01872,-0.094741 -0.02344,-0.1464843 -0.0053,-0.060336 -0.0078,-0.1142702 -0.0078,-0.1621094 0,-0.053783 0.0025,-0.1136475 0.0078,-0.1796875 0.0052,-0.065638 0.01286,-0.132455 0.02344,-0.2011719 0.01071,-0.069579 0.02382,-0.1373965 0.03711,-0.2011719 0.01333,-0.06664 0.02643,-0.1224982 0.03906,-0.1679687 l 0.01563,-0.056641 -0.03125,-0.046875 c -0.04066,-0.063904 -0.120182,-0.1046314 -0.191406,-0.109375 -0.05571,-0.00371 -0.11226,0.0017 -0.167969,0.015625 -0.05082,0.012705 -0.0984,0.028437 -0.142578,0.048828 -0.02229,0.010282 -0.04005,0.020515 -0.06055,0.035156 -0.0205,0.014642 -0.05301,0.029878 -0.06836,0.091797 v 0.00781 l -0.002,0.00781 c -0.01409,0.1156759 -0.0236,0.2280341 -0.0293,0.3359375 -0.0056,0.1053373 -0.0109,0.1983267 -0.01367,0.2792969 -0.0027,0.09206 -0.0038,0.1797579 -0.0039,0.2617187 -3.6e-5,7.005e-4 3.5e-5,0.00125 0,0.00195 -1e-6,0.00183 0,0.00403 0,0.00586 -0.0052,0.1146761 0.0036,0.2220507 0.0293,0.3183594 0.02562,0.09608 0.06537,0.1827295 0.121094,0.2558594 h 0.002 v 0.00195 c 0.05405,0.067565 0.119004,0.1231636 0.193359,0.1621094 h 0.002 c 0.07874,0.039372 0.16608,0.058594 0.25586,0.058594 0.08388,0 0.167892,-0.021436 0.238281,-0.064453 0.05459,-0.033359 0.101393,-0.076567 0.144531,-0.125 0.01623,0.037485 0.01037,0.082952 0.04883,0.1074219 l 0.002,0.00195 0.002,0.00195 c 0.05589,0.0326 0.121057,0.044922 0.185547,0.044922 0.0274,0 0.05476,-5e-4 0.08203,-0.00391 h 0.002 c 0.01785,-0.00255 0.03798,-0.00523 0.05859,-0.00781 0.03467,-0.00385 0.06908,-0.013207 0.101563,-0.025391 L 14.158344,3.894506 13.988422,3.7519278 c 0.01421,0.01184 0.0083,0.015633 0.0039,-0.00195 l 0.002,0.00195 c -0.0074,-0.032196 -0.01453,-0.063632 -0.01953,-0.095703 v -0.00195 c -0.0045,-0.034245 -0.0059,-0.073089 -0.0059,-0.1171875 V 3.3710938 l -0.002,0.00586 c 0.0028,-0.070747 0.0071,-0.1471822 0.0098,-0.2285156 v -0.00391 c 0.0054,-0.084266 0.01017,-0.1689233 0.01563,-0.2558594 0.0056,-0.089212 0.01089,-0.1734483 0.01367,-0.2519531 l -0.002,0.00391 c 0.0056,-0.077842 0.01087,-0.1447293 0.01367,-0.2011719 0.0027,-0.05655 0.0067,-0.09586 0.0078,-0.1035156 v -0.00195 -0.00195 c 0.0049,-0.044069 -0.01275,-0.097877 -0.04102,-0.1308594 -0.02827,-0.032982 -0.05936,-0.048821 -0.08984,-0.060547 -0.05206,-0.022672 -0.108578,-0.035156 -0.166015,-0.035156 z m 0,0.2578125 c 0.01532,0 0.02361,0.00517 0.03516,0.00781 -0.0012,0.018897 -0.0026,0.03064 -0.0039,0.056641 -0.0027,0.0538 -0.0062,0.1188137 -0.01172,0.1953125 v 0.00195 0.00195 c -0.0027,0.075835 -0.0062,0.1569643 -0.01172,0.2441407 -0.0055,0.08813 -0.01209,0.1763489 -0.01758,0.2617187 v 0.00195 0.00195 c -0.0027,0.082459 -0.005,0.1591075 -0.0078,0.2304687 v 0.00195 0.1679688 c 0,0.054387 0.0033,0.1062569 0.0098,0.1542969 v 0.00195 c 0.0029,0.018794 0.0062,0.037874 0.0098,0.056641 -0.0077,4.453e-4 -0.01572,0.00195 -0.02344,0.00195 -0.02601,0 -0.03855,-0.00459 -0.04883,-0.00977 0.01534,0.012124 0.01172,0.024266 0.01172,-0.011719 0,-0.025216 0.0015,-0.066224 0.0039,-0.1191407 v -0.00586 c 0.0054,-0.056912 0.01027,-0.1170962 0.01563,-0.1816407 l -0.15039,-0.03125 c 0.02186,-0.064537 0.0427,-0.1301645 0.05859,-0.2050781 0.01971,-0.095739 0.03545,-0.191762 0.04687,-0.2851562 v -0.00391 c 0.01389,-0.092617 0.02238,-0.181721 0.02539,-0.2675781 v -0.00391 c 0.0044,-0.067757 0.0071,-0.1211061 0.0098,-0.171875 h 0.0039 v -0.083984 c 0.01445,-0.00388 0.02952,-0.00781 0.04492,-0.00781 z m -0.826172,0.050781 c -0.0052,0.023558 -0.01044,0.042418 -0.01563,0.068359 -0.01427,0.068516 -0.02772,0.1391544 -0.03906,0.2128906 -0.01148,0.074599 -0.01962,0.1465849 -0.02539,0.21875 -0.0058,0.071763 -0.0078,0.1391993 -0.0078,0.2011719 0,0.056891 0.002,0.1191035 0.0078,0.1855469 0.0061,0.066724 0.01774,0.1314226 0.0332,0.1933593 v 0.00391 l 0.002,0.00391 c 0.02017,0.063895 0.04749,0.1219069 0.08594,0.171875 l 0.002,0.00195 0.002,0.00195 c 0.04723,0.055809 0.123852,0.086151 0.197265,0.091797 -0.01836,0.00571 -0.03429,0.015625 -0.05859,0.015625 -0.05354,-10e-8 -0.0981,-0.011942 -0.140625,-0.033203 C 12.905004,3.730358 12.869574,3.702029 12.836079,3.660157 12.804229,3.617813 12.778119,3.564398 12.759909,3.4960945 12.741977,3.4293821 12.735256,3.3470524 12.740234,3.25 V 3.24609 3.24414 c 0,-0.081266 0.0012,-0.1691133 0.0039,-0.2617187 0.0027,-0.078882 0.0062,-0.1693135 0.01172,-0.2734375 0.0044,-0.083471 0.01358,-0.1723229 0.02344,-0.2617188 0.02553,-0.011108 0.05244,-0.020923 0.08594,-0.029297 0.01342,-0.00335 0.02478,-0.00237 0.03711,-0.00391 z"
           id="path423" />
      </g>
      <g
         id="path374">
        <path
           style="color:#000000;-inkscape-font-specification:'Rancho, Normal';fill:#000000;stroke:none;stroke-opacity:1;-inkscape-stroke:none"
           d="m 14.24038,1.2881392 q 0.03307,-0.045475 0.07028,-0.078548 0.04134,-0.033073 0.08268,-0.053743 0.04547,-0.020671 0.09508,-0.033073 0.03721,-0.00827 0.07028,-0.00827 0.02894,0 0.05374,0.00413 0.02894,0.00413 0.04547,0.020671 -0.0083,0.1984373 -0.01654,0.3389971 -0.0041,0.1364256 -0.0124,0.2397784 -0.0041,0.1033528 -0.0083,0.186035 -0.0041,0.078548 -0.0124,0.1612303 -0.0041,0.082682 -0.0124,0.1819009 -0.0083,0.095085 -0.01654,0.2315103 -0.0083,0.086816 -0.0124,0.1777667 -0.0041,0.086816 -0.0083,0.1777668 0.03721,-0.1033528 0.09095,-0.2149738 0.05788,-0.111621 0.132292,-0.2025714 0.07441,-0.090951 0.169498,-0.148828 0.09508,-0.062012 0.206706,-0.062012 0.157096,0 0.252181,0.09095 0.09508,0.09095 0.144693,0.223242 0.04961,0.1281574 0.06201,0.2728513 0.01654,0.1446939 0.01654,0.2563149 0,0.1074869 -0.02894,0.2563149 -0.02481,0.1446939 -0.09509,0.2811195 -0.06615,0.1322916 -0.177767,0.2273761 -0.111621,0.095085 -0.281119,0.095085 -0.119889,0 -0.202572,-0.049609 -0.08268,-0.049609 -0.136425,-0.1157551 -0.05374,-0.066146 -0.07855,-0.1322916 -0.02067,-0.066146 -0.02067,-0.095085 0,-0.028939 0.02067,-0.066146 0.02067,-0.041341 0.04961,-0.074414 0.02894,-0.037207 0.06201,-0.057878 0.03307,-0.024805 0.05374,-0.020671 -0.0083,0.1364256 0.01654,0.2108396 0.02894,0.07028 0.06614,0.1033528 0.04548,0.041341 0.09922,0.045475 0.07855,0 0.136426,-0.074414 0.06201,-0.074414 0.103352,-0.1819009 0.04134,-0.1074869 0.06201,-0.2315102 0.02481,-0.1281574 0.02481,-0.2273761 0,-0.074414 -0.0124,-0.1570962 -0.0083,-0.086816 -0.02894,-0.1570962 -0.02067,-0.074414 -0.05788,-0.1198893 -0.03721,-0.045475 -0.09095,-0.045475 -0.09095,0 -0.190169,0.1033528 -0.09922,0.1033528 -0.181901,0.2728513 -0.08268,0.1653645 -0.136426,0.3762041 -0.05374,0.2108397 -0.04961,0.4299476 0,0.057878 0.0041,0.1033528 0.0083,0.041341 0.01654,0.074414 -0.09922,0.041341 -0.157096,0.049609 -0.03307,0.00827 -0.05374,0.00413 -0.05788,0 -0.09508,-0.033073 -0.03721,-0.033073 -0.04547,-0.1405598 -0.0041,-0.037207 -0.0041,-0.2025714 0,-0.1694986 0,-0.4051429 0,-0.2397784 0,-0.5167639 0.0041,-0.2769854 0.0041,-0.5333003 0.0041,-0.2563149 0.0041,-0.4588863 0.0041,-0.2067056 0.0083,-0.297656 z"
           id="path427" />
        <path
           style="color:#000000;-inkscape-font-specification:'Rancho, Normal';fill:#000000;fill-opacity:0;stroke:none;stroke-opacity:1;-inkscape-stroke:none"
           d="m 14.558594,0.98632813 c -0.03276,0 -0.06498,0.004456 -0.09766,0.0117188 h -0.002 -0.002 c -0.04041,0.0101016 -0.07966,0.0239553 -0.117187,0.0410156 h -0.002 l -0.002,0.00195 c -0.03676,0.018378 -0.07179,0.041416 -0.105469,0.068359 l -0.002,0.00195 -0.0039,0.00195 c -0.01323,0.011759 -0.02291,0.027877 -0.03516,0.041016 l -0.07031,-0.00781 -0.0078,0.1347656 c -0.0029,0.06319 -0.0051,0.1644346 -0.0078,0.3027344 v 0.00195 c 0,0.1341805 -0.0012,0.2866961 -0.0039,0.4570313 v 0.00195 c 0,0.1701912 -0.0012,0.3471797 -0.0039,0.53125 V 3.0957031 3.5 c 0,0.1093 -8.27e-4,0.1677768 0.0039,0.2128906 0.0066,0.085352 0.01495,0.1617295 0.08789,0.2265625 0.04747,0.042206 0.113044,0.060784 0.173828,0.0625 0.03312,0.00352 0.06264,8.594e-4 0.08984,-0.00586 h 0.002 c 0.05407,-0.00926 0.109381,-0.027021 0.175781,-0.054687 l 0.08008,-0.033203 c 0.02486,0.020025 0.04408,0.045586 0.07227,0.0625 0.07862,0.04717 0.171881,0.066406 0.269531,0.066406 0.137027,0 0.264426,-0.040789 0.363282,-0.125 0.08656,-0.073742 0.157572,-0.1636197 0.208984,-0.265625 l 0.002,-0.00195 c 0.05159,-0.1006749 0.0867,-0.2061485 0.105469,-0.3144532 v -0.00195 c 0.02013,-0.104023 0.03125,-0.1966772 0.03125,-0.2792969 0,-0.080178 -0.0063,-0.16828 -0.01758,-0.2675781 v -0.00195 c -0.0094,-0.1070656 -0.03289,-0.2080163 -0.07031,-0.3046875 h 0.002 C 15.636629,2.3702098 15.577808,2.2775532 15.5,2.203125 c -0.08893,-0.085067 -0.212268,-0.125 -0.341797,-0.125 -0.09675,0 -0.191617,0.0277 -0.273437,0.080078 -0.06137,0.037357 -0.114255,0.088956 -0.164063,0.1425782 10e-4,-0.012644 0.0029,-0.031344 0.0039,-0.042969 0.0055,-0.065231 0.0089,-0.1242953 0.01172,-0.1796875 v -0.00586 c 0.0054,-0.054987 0.009,-0.1094732 0.01172,-0.1621094 0.0027,-0.053978 0.0071,-0.1149293 0.0098,-0.1816406 v -0.00586 c 0.0055,-0.069342 0.009,-0.1477391 0.01172,-0.2363281 v -0.00391 c 0.0055,-0.094064 0.01209,-0.2066047 0.01758,-0.3378907 l 0.002,-0.056641 -0.04102,-0.039063 c -0.03329,-0.033311 -0.07598,-0.0507378 -0.115234,-0.0566406 h -0.002 c -0.0239,-0.003861 -0.04752,-0.005859 -0.07226,-0.005859 z m -0.03516,0.25976557 c -0.0037,0.079474 -0.0061,0.1626412 -0.0098,0.2246094 v 0.00195 0.00195 c -0.0027,0.089322 -0.0084,0.1663342 -0.01367,0.2324218 v 0.00391 0.00195 c -0.0027,0.068521 -0.005,0.1310189 -0.0078,0.1855469 -0.0026,0.049614 -0.0064,0.1017681 -0.01172,0.1542969 v 0.00391 0.00195 c -0.0026,0.053377 -0.0063,0.1127918 -0.01172,0.1777343 -0.0057,0.065024 -0.01204,0.1426265 -0.01758,0.234375 -0.0056,0.058893 -0.009,0.1183228 -0.01172,0.1796875 -0.0027,0.057924 -0.007,0.1170579 -0.0098,0.1777344 l 0.169921,0.033203 c -0.0443,0.1004607 -0.08502,0.2037434 -0.115234,0.3222657 -0.03849,0.1510155 -0.05747,0.3042625 -0.05469,0.4609375 0,0.032437 0.002,0.061402 0.0039,0.089844 -0.0073,0.0018 -0.02482,0.00913 -0.0293,0.00977 l -0.0078,0.00195 -0.0059,0.00195 c -0.01104,0.00276 -0.01141,-0.00111 0.0039,0.00195 l -0.01367,-0.00195 h -0.01172 c -0.01411,0 -0.0097,-0.00189 -0.0098,-0.00195 0.02333,0.020736 5.48e-4,0.00523 -0.0039,-0.052734 V 3.6914063 3.6875 C 14.354868,3.6833 14.351431,3.609181 14.351431,3.5 V 3.0957031 2.5800781 2.578125 c 0.0027,-0.1838416 0.0039,-0.3608911 0.0039,-0.53125 v -0.00195 c 0.0027,-0.1698157 0.0058,-0.3221198 0.0059,-0.4570313 v -0.00195 c 0.0023,-0.1167221 0.0035,-0.1907287 0.0059,-0.25 0.0079,-0.00895 0.0176,-0.018165 0.02539,-0.025391 0.02089,-0.01657 0.04065,-0.030089 0.05859,-0.039063 0.02191,-0.00969 0.04408,-0.017367 0.06836,-0.023437 0.0016,-3.201e-4 0.0024,-0.00167 0.0039,-0.00195 z m 0.634765,1.0878907 c 0.07993,0 0.126217,0.020441 0.164063,0.056641 0.04896,0.046838 0.08628,0.1018385 0.113281,0.1738281 v 0.00195 c 0.0285,0.073616 0.04544,0.1531286 0.05273,0.2382812 v 0.00195 h 0.002 c 0.0106,0.092758 0.01563,0.1741206 0.01563,0.2421875 0,0.060125 -0.0092,0.138893 -0.02734,0.2324219 v 0.00195 c -0.01426,0.083173 -0.04278,0.1641593 -0.08399,0.2441407 v 0.00195 c -0.03668,0.073351 -0.08493,0.1350613 -0.146484,0.1875 -0.04997,0.042569 -0.108296,0.064453 -0.197266,0.064453 -0.01954,0 -0.02702,-0.00751 -0.04297,-0.00977 0.07973,-0.00998 0.157498,-0.045499 0.207031,-0.1074219 0.05183,-0.062196 0.09328,-0.134321 0.125,-0.2167969 0.03049,-0.079277 0.05328,-0.1648737 0.06836,-0.2539062 v -0.00391 c 0.01719,-0.089867 0.02734,-0.1723682 0.02734,-0.2480468 0,-0.054867 -0.0052,-0.1113497 -0.01367,-0.1699219 v -0.00586 c -0.0062,-0.061672 -0.01753,-0.1180386 -0.0332,-0.171875 v -0.00195 c -0.01729,-0.061576 -0.04322,-0.1185874 -0.08203,-0.1660156 -0.04036,-0.049319 -0.1076,-0.078228 -0.173828,-0.083984 0.0089,-8.83e-4 0.01597,-0.00781 0.02539,-0.00781 z m -0.101562,0.03125 c -0.02122,0.00496 -0.03866,0.020222 -0.05859,0.029297 0.0071,-0.00479 0.01225,-0.01315 0.01953,-0.017578 h 0.002 l 0.002,-0.00195 c 0.01127,-0.00735 0.024,-0.00449 0.03516,-0.00977 z m 0.05273,0.2285156 c 0.0101,0.013145 0.0235,0.033413 0.0332,0.068359 v 0.00195 c 0.01104,0.037596 0.01855,0.08171 0.02344,0.1328125 v 0.00391 l 0.002,0.00391 c 0.0074,0.04953 0.0098,0.094247 0.0098,0.1367188 0,0.055435 -0.0061,0.1237618 -0.02148,0.203125 v 0.00195 0.00195 c -0.01249,0.074917 -0.03245,0.1441314 -0.05664,0.2070313 -0.0234,0.06084 -0.05118,0.1075083 -0.08203,0.1445312 v 0.00195 l -0.002,0.00195 c -0.01861,0.023929 -0.02271,0.021599 -0.03125,0.021484 -0.0041,-7.661e-4 -0.0078,-8.374e-4 -0.01758,-0.00977 -0.0029,-0.00261 -0.01678,-0.022089 -0.0293,-0.048828 v -0.00195 c -0.0076,-0.023692 -0.01664,-0.079356 -0.01172,-0.1601563 l 0.0078,-0.1113281 -0.109375,-0.021484 c -0.03472,-0.00694 -0.04824,0.011461 -0.07227,0.019531 0.03089,-0.1079971 0.06495,-0.2099724 0.107422,-0.2949219 v -0.00195 c 0.05075,-0.1040448 0.105964,-0.1837853 0.160156,-0.2402344 0.04867,-0.050694 0.0759,-0.059113 0.08984,-0.060547 z"
           id="path429" />
      </g>
    </g>
  </g>
</svg>
